<svg xmlns="http://www.w3.org/2000/svg" xmlns:xlink="http://www.w3.org/1999/xlink" width="22" height="22" viewBox="0 0 22 22">
  <defs>
    <path id="exclamation-circle-a" d="M11,0 C4.92488333,0 0,4.92488333 0,11 C0,17.0751167 4.92488333,22 11,22 C17.0751167,22 22,17.0751167 22,11 C22,4.92488333 17.0751167,0 11,0 Z M11,20 C6.03722,20 2,15.96278 2,11 C2,6.03722 6.03722,2 11,2 C15.96278,2 20,6.03722 20,11 C20,15.96278 15.96278,20 11,20 Z M10,16.5 L10,14 L12.5,14 L12.5,16.5 L10,16.5 Z M10,12 L9,5 L13.5,5 L12.5045166,12 L10,12 Z"/>
  </defs>
  <use xlink:href="#exclamation-circle-a" fill="#AAAAAA" />
</svg>
